<?xml version="1.0" encoding="UTF-8"?>
<svg id="Layer_1" xmlns="http://www.w3.org/2000/svg" version="1.1" viewBox="0 0 671.88 707.81">
  <!-- Generator: Adobe Illustrator 30.5.1, SVG Export Plug-In . SVG Version: 2.1.4 Build 3)  -->
  <defs>
    <style>
      .st0 {
        fill: #931a1d;
      }
    </style>
  </defs>
  <path class="st0" d="M335.94,0c-44.27,0-84.61,13.34-114.5,35.77-29.89,22.42-49.56,54.66-49.56,90.8,0,12.82,2.81,24.29,7.77,34.34,3.75,8.11,8.89,15.46,15.55,21.5,2.17,1.9,4.41,3.67,6.71,5.36,6.75,5.25,14.38,9.59,22.61,12.98,30.43,12.52,69.23,15.62,111.42,15.62,5.91,0,11.73-.07,17.5-.21,13.7-.24,27.3-1,40.57-2.68,19.56-2.31,37.59-6.25,53.35-12.74,5.59-2.3,10.91-5.05,15.86-8.21,2.21-1.22,4.4-2.48,6.55-3.83,8.97-6.52,16.04-15.27,21.11-25.21,4.92-9.03,8.05-19.28,8.89-30.69.34-3.4.5-6.81.45-10.22-.1-.02-.2-.05-.31-.07-1.41-34.48-20.7-65.16-49.46-86.73C420.55,13.35,380.21,0,335.94,0ZM335.94,28.12c38.57,0,73.23,11.84,97.63,30.14,24.4,18.3,38.31,42.3,38.31,68.3s-11.36,38.35-35.22,48.16c-23.86,9.82-60.06,13.52-100.71,13.52s-76.85-3.7-100.71-13.52c-23.86-9.82-35.22-22.16-35.22-48.16s13.91-50,38.31-68.3c24.4-18.3,59.06-30.14,97.63-30.14ZM276.91,55.86c-9.59.08-19.83,3.93-28.39,10.67-17.49,13.76-23.29,35.56-12.96,48.69s32.88,12.61,50.37-1.15c17.49-13.77,23.29-35.56,12.96-48.69-4.87-6.18-12.75-9.6-21.98-9.52ZM143.65,130.51c-17.78,5.6-34.29,11.94-49.28,18.9C33.51,177.67,0,214.88,0,251.56s33.51,73.9,94.37,102.15c60.86,28.25,146.68,46.29,241.57,46.29s180.7-18.03,241.57-46.29c60.86-28.26,94.37-65.46,94.37-102.15s-33.51-73.9-94.37-102.15c-14.9-6.92-31.29-13.21-48.95-18.79-1.56,31.4-16,62.01-42.65,81.15l-.35.25-.36.23c-52.29,32.93-114.58,33.39-169.95,31.64-45.77-1.15-99.04-5.61-138.71-40.44l-.08-.07-.08-.07c-21.27-19.24-31.59-45.73-32.73-72.8h0ZM596.95,204.31c11.99.07,23.91,4.08,32.77,12.94,10.91,10.9,14.46,26.44,12.38,41.04-2.09,14.59-9.44,28.94-21.21,40.72-11.78,11.78-26.13,19.13-40.72,21.21s-30.14-1.47-41.04-12.37c-10.91-10.91-14.46-26.44-12.37-41.04,2.08-14.59,9.43-28.94,21.21-40.72,11.78-11.78,26.13-19.13,40.72-21.21,2.74-.39,5.51-.58,8.27-.57h0ZM71.89,207.34c2.77-.02,5.54.18,8.27.57,14.59,2.09,28.94,9.43,40.72,21.21,11.78,11.78,19.13,26.13,21.21,40.72,2.08,14.59-1.47,30.13-12.37,41.04-10.9,10.91-26.44,14.45-41.03,12.37-14.59-2.09-28.95-9.43-40.72-21.21-11.78-11.78-19.12-26.13-21.21-40.72-2.08-14.59,1.47-30.13,12.38-41.04,8.86-8.86,20.78-12.87,32.76-12.94h0ZM598.11,232.41c-1.68-.07-3.5.03-5.45.3-7.8,1.11-17.07,5.5-24.81,13.25-7.75,7.75-12.14,17.02-13.26,24.81-1.11,7.8.68,13.43,4.42,17.17,3.74,3.74,9.38,5.53,17.18,4.42,7.8-1.12,17.06-5.51,24.81-13.26,7.75-7.75,12.14-17.01,13.26-24.81,1.11-7.8-.68-13.44-4.42-17.18-2.8-2.8-6.68-4.51-11.73-4.72h0ZM70.73,235.45c-5.05.21-8.92,1.92-11.72,4.72-3.74,3.74-5.53,9.38-4.42,17.17,1.11,7.8,5.51,17.07,13.26,24.82,7.75,7.75,17.01,12.14,24.81,13.25,7.8,1.11,13.44-.68,17.18-4.42,3.74-3.74,5.53-9.38,4.42-17.17s-5.51-17.07-13.25-24.81c-7.75-7.75-17.02-12.14-24.81-13.25-1.95-.28-3.77-.38-5.45-.3h0ZM335.94,287.5c16.66,0,32,4.95,43.79,13.8,11.8,8.85,20.27,22.34,20.27,37.77s-8.48,28.92-20.27,37.77c-11.79,8.84-27.14,13.8-43.79,13.8s-32-4.95-43.79-13.8c-11.8-8.85-20.27-22.34-20.27-37.77s8.47-28.92,20.27-37.77c11.79-8.84,27.14-13.8,43.79-13.8ZM335.94,315.62c-10.96,0-20.62,3.44-26.92,8.17-6.3,4.72-9.02,9.98-9.02,15.27s2.72,10.54,9.02,15.27c6.3,4.73,15.96,8.17,26.92,8.17s20.62-3.44,26.92-8.17c6.3-4.72,9.02-9.98,9.02-15.27s-2.72-10.54-9.02-15.27c-6.3-4.73-15.96-8.17-26.92-8.17ZM249.84,423.28l-138.91,284.53h450l-138.91-284.53c-27.6,3.17-56.42,4.85-86.09,4.85s-58.49-1.68-86.09-4.85Z"/>
</svg>